<mxfile host="app.diagrams.net" agent="Mozilla/5.0 (Macintosh; Intel Mac OS X 10_15_7) AppleWebKit/537.36 (KHTML, like Gecko) Chrome/134.0.0.0 Safari/537.36" version="26.2.5">
  <diagram name="Page-1" id="JDla05tRz_M7BhXQXtRj">
    <mxGraphModel dx="2436" dy="2726" grid="1" gridSize="10" guides="1" tooltips="1" connect="1" arrows="1" fold="1" page="1" pageScale="1" pageWidth="850" pageHeight="1100" math="0" shadow="0">
      <root>
        <mxCell id="0" />
        <mxCell id="1" parent="0" />
        <mxCell id="IHToHC2NqSq3kmPiKQjZ-73" value="Outputs" style="whiteSpace=wrap;strokeWidth=2;" vertex="1" parent="1">
          <mxGeometry x="124.5" y="1390" width="711" height="104" as="geometry" />
        </mxCell>
        <mxCell id="IHToHC2NqSq3kmPiKQjZ-74" value="Agent Pipeline" style="whiteSpace=wrap;strokeWidth=2;" vertex="1" parent="1">
          <mxGeometry x="24" y="626" width="266" height="635" as="geometry" />
        </mxCell>
        <mxCell id="IHToHC2NqSq3kmPiKQjZ-76" value="RAG + MCP Orchestration Layer" style="whiteSpace=wrap;strokeWidth=2;" vertex="1" parent="1">
          <mxGeometry x="390" y="628.5" width="1090" height="630" as="geometry" />
        </mxCell>
        <mxCell id="IHToHC2NqSq3kmPiKQjZ-78" value="User Interaction" style="whiteSpace=wrap;strokeWidth=2;" vertex="1" parent="1">
          <mxGeometry x="180" y="-170" width="730" height="620" as="geometry" />
        </mxCell>
        <mxCell id="IHToHC2NqSq3kmPiKQjZ-79" value="User Interface" style="whiteSpace=wrap;strokeWidth=2;" vertex="1" parent="1">
          <mxGeometry x="442.5" y="-120" width="162" height="54" as="geometry" />
        </mxCell>
        <mxCell id="IHToHC2NqSq3kmPiKQjZ-80" value="FastAPI Server" style="rounded=1;arcSize=20;strokeWidth=2" vertex="1" parent="1">
          <mxGeometry x="457" y="20" width="133" height="54" as="geometry" />
        </mxCell>
        <mxCell id="IHToHC2NqSq3kmPiKQjZ-81" value="report_config.json" style="whiteSpace=wrap;strokeWidth=2;" vertex="1" parent="1">
          <mxGeometry x="680" y="20" width="193" height="54" as="geometry" />
        </mxCell>
        <mxCell id="IHToHC2NqSq3kmPiKQjZ-82" value="LangGraph Workflow" style="rounded=1;arcSize=20;strokeWidth=2" vertex="1" parent="1">
          <mxGeometry x="436" y="180" width="178" height="54" as="geometry" />
        </mxCell>
        <mxCell id="IHToHC2NqSq3kmPiKQjZ-83" value="Enhanced Researcher" style="whiteSpace=wrap;strokeWidth=2;" vertex="1" parent="1">
          <mxGeometry x="417.5" y="330" width="212" height="54" as="geometry" />
        </mxCell>
        <mxCell id="IHToHC2NqSq3kmPiKQjZ-84" value="RAG + MCP Layer" style="whiteSpace=wrap;strokeWidth=2;" vertex="1" parent="1">
          <mxGeometry x="669" y="670" width="181" height="54" as="geometry" />
        </mxCell>
        <mxCell id="IHToHC2NqSq3kmPiKQjZ-85" value="Vector Store" style="whiteSpace=wrap;strokeWidth=2;" vertex="1" parent="1">
          <mxGeometry x="480.5" y="900" width="149" height="54" as="geometry" />
        </mxCell>
        <mxCell id="IHToHC2NqSq3kmPiKQjZ-86" value="LLM Decision" style="whiteSpace=wrap;strokeWidth=2;" vertex="1" parent="1">
          <mxGeometry x="683.5" y="900" width="152" height="54" as="geometry" />
        </mxCell>
        <mxCell id="IHToHC2NqSq3kmPiKQjZ-87" value="MCP Server" style="whiteSpace=wrap;strokeWidth=2;" vertex="1" parent="1">
          <mxGeometry x="898" y="900" width="140" height="54" as="geometry" />
        </mxCell>
        <mxCell id="IHToHC2NqSq3kmPiKQjZ-88" value="APIs: CMC, DeFiLlama, Binance" style="whiteSpace=wrap;strokeWidth=2;" vertex="1" parent="1">
          <mxGeometry x="1210" y="1027" width="220" height="60" as="geometry" />
        </mxCell>
        <mxCell id="IHToHC2NqSq3kmPiKQjZ-92" value="Third-Party APIs" style="whiteSpace=wrap;strokeWidth=2;" vertex="1" parent="1">
          <mxGeometry x="1210" y="1160" width="220" height="60" as="geometry" />
        </mxCell>
        <mxCell id="IHToHC2NqSq3kmPiKQjZ-93" value="Visualization Agent" style="whiteSpace=wrap;strokeWidth=2;" vertex="1" parent="1">
          <mxGeometry x="59" y="651" width="196" height="54" as="geometry" />
        </mxCell>
        <mxCell id="IHToHC2NqSq3kmPiKQjZ-94" value="Writer" style="whiteSpace=wrap;strokeWidth=2;" vertex="1" parent="1">
          <mxGeometry x="55" y="778" width="200" height="54" as="geometry" />
        </mxCell>
        <mxCell id="IHToHC2NqSq3kmPiKQjZ-95" value="Reviewer" style="whiteSpace=wrap;strokeWidth=2;" vertex="1" parent="1">
          <mxGeometry x="55" y="900" width="200" height="54" as="geometry" />
        </mxCell>
        <mxCell id="IHToHC2NqSq3kmPiKQjZ-96" value="Editor" style="whiteSpace=wrap;strokeWidth=2;" vertex="1" parent="1">
          <mxGeometry x="55" y="1030" width="200" height="54" as="geometry" />
        </mxCell>
        <mxCell id="IHToHC2NqSq3kmPiKQjZ-97" value="Publisher" style="whiteSpace=wrap;strokeWidth=2;" vertex="1" parent="1">
          <mxGeometry x="55" y="1160" width="200" height="54" as="geometry" />
        </mxCell>
        <mxCell id="IHToHC2NqSq3kmPiKQjZ-98" value="Final Report" style="whiteSpace=wrap;strokeWidth=2;" vertex="1" parent="1">
          <mxGeometry x="159.5" y="1415" width="166" height="54" as="geometry" />
        </mxCell>
        <mxCell id="IHToHC2NqSq3kmPiKQjZ-99" value="Chatbot" style="whiteSpace=wrap;strokeWidth=2;" vertex="1" parent="1">
          <mxGeometry x="375.5" y="1415" width="180" height="54" as="geometry" />
        </mxCell>
        <mxCell id="IHToHC2NqSq3kmPiKQjZ-100" value="MCP Data Endpoint" style="whiteSpace=wrap;strokeWidth=2;" vertex="1" parent="1">
          <mxGeometry x="595.5" y="1415" width="196" height="54" as="geometry" />
        </mxCell>
        <mxCell id="IHToHC2NqSq3kmPiKQjZ-103" value="User Query" style="curved=1;startArrow=none;endArrow=block;exitX=0.5;exitY=1;entryX=0.5;entryY=-0.01;rounded=0;" edge="1" parent="1" source="IHToHC2NqSq3kmPiKQjZ-79" target="IHToHC2NqSq3kmPiKQjZ-80">
          <mxGeometry relative="1" as="geometry">
            <Array as="points" />
          </mxGeometry>
        </mxCell>
        <mxCell id="IHToHC2NqSq3kmPiKQjZ-106" value="Initiates Research" style="curved=1;startArrow=none;endArrow=block;exitX=0.5;exitY=1;entryX=0.5;entryY=-0.01;rounded=0;" edge="1" parent="1" source="IHToHC2NqSq3kmPiKQjZ-82" target="IHToHC2NqSq3kmPiKQjZ-83">
          <mxGeometry relative="1" as="geometry">
            <Array as="points" />
          </mxGeometry>
        </mxCell>
        <mxCell id="IHToHC2NqSq3kmPiKQjZ-107" value="Query" style="curved=1;startArrow=none;endArrow=block;exitX=1;exitY=0.69;entryX=0.5;entryY=0;rounded=0;" edge="1" parent="1" source="IHToHC2NqSq3kmPiKQjZ-83" target="IHToHC2NqSq3kmPiKQjZ-84">
          <mxGeometry x="-1" y="307" relative="1" as="geometry">
            <Array as="points">
              <mxPoint x="1292" y="554" />
            </Array>
            <mxPoint x="-73" y="-12" as="offset" />
          </mxGeometry>
        </mxCell>
        <mxCell id="IHToHC2NqSq3kmPiKQjZ-115" value="Plug-In Flexibility" style="curved=1;startArrow=none;endArrow=block;entryX=0.5;entryY=0;rounded=0;exitX=0.5;exitY=1;exitDx=0;exitDy=0;entryDx=0;entryDy=0;" edge="1" parent="1" source="IHToHC2NqSq3kmPiKQjZ-88" target="IHToHC2NqSq3kmPiKQjZ-92">
          <mxGeometry relative="1" as="geometry">
            <Array as="points" />
          </mxGeometry>
        </mxCell>
        <mxCell id="IHToHC2NqSq3kmPiKQjZ-116" value="Processes Data" style="curved=1;startArrow=none;endArrow=block;exitX=0;exitY=0.66;entryX=0.5;entryY=0;rounded=0;" edge="1" parent="1" source="IHToHC2NqSq3kmPiKQjZ-83" target="IHToHC2NqSq3kmPiKQjZ-93">
          <mxGeometry relative="1" as="geometry">
            <Array as="points">
              <mxPoint x="157" y="554" />
            </Array>
          </mxGeometry>
        </mxCell>
        <mxCell id="IHToHC2NqSq3kmPiKQjZ-117" value="Generates Charts" style="curved=1;startArrow=none;endArrow=block;exitX=0.5;exitY=1;entryX=0.5;entryY=-0.01;rounded=0;" edge="1" parent="1" source="IHToHC2NqSq3kmPiKQjZ-93" target="IHToHC2NqSq3kmPiKQjZ-94">
          <mxGeometry relative="1" as="geometry">
            <Array as="points" />
          </mxGeometry>
        </mxCell>
        <mxCell id="IHToHC2NqSq3kmPiKQjZ-118" value="Drafts Content" style="curved=1;startArrow=none;endArrow=block;exitX=0.5;exitY=0.99;entryX=0.5;entryY=0;rounded=0;" edge="1" parent="1" source="IHToHC2NqSq3kmPiKQjZ-94" target="IHToHC2NqSq3kmPiKQjZ-95">
          <mxGeometry relative="1" as="geometry">
            <Array as="points" />
          </mxGeometry>
        </mxCell>
        <mxCell id="IHToHC2NqSq3kmPiKQjZ-119" value="Checks Accuracy" style="curved=1;startArrow=none;endArrow=block;exitX=0.5;exitY=1;entryX=0.5;entryY=-0.01;rounded=0;" edge="1" parent="1" source="IHToHC2NqSq3kmPiKQjZ-95" target="IHToHC2NqSq3kmPiKQjZ-96">
          <mxGeometry relative="1" as="geometry">
            <Array as="points" />
          </mxGeometry>
        </mxCell>
        <mxCell id="IHToHC2NqSq3kmPiKQjZ-120" value="Polishes Report" style="curved=1;startArrow=none;endArrow=block;exitX=0.5;exitY=0.99;entryX=0.5;entryY=0;rounded=0;" edge="1" parent="1" source="IHToHC2NqSq3kmPiKQjZ-96" target="IHToHC2NqSq3kmPiKQjZ-97">
          <mxGeometry relative="1" as="geometry">
            <Array as="points" />
          </mxGeometry>
        </mxCell>
        <mxCell id="IHToHC2NqSq3kmPiKQjZ-121" value="Outputs" style="curved=1;startArrow=none;endArrow=block;entryX=0.5;entryY=0;rounded=0;entryDx=0;entryDy=0;" edge="1" parent="1" source="IHToHC2NqSq3kmPiKQjZ-97" target="IHToHC2NqSq3kmPiKQjZ-98">
          <mxGeometry x="-0.4493" y="13" relative="1" as="geometry">
            <Array as="points">
              <mxPoint x="80" y="1410" />
            </Array>
            <mxPoint x="156" y="1240" as="sourcePoint" />
            <mxPoint x="142" y="1595" as="targetPoint" />
            <mxPoint x="-1" as="offset" />
          </mxGeometry>
        </mxCell>
        <mxCell id="IHToHC2NqSq3kmPiKQjZ-123" value="Exposed API" style="curved=1;startArrow=none;endArrow=block;entryX=0.5;entryY=0;rounded=0;" edge="1" parent="1" source="IHToHC2NqSq3kmPiKQjZ-84" target="IHToHC2NqSq3kmPiKQjZ-100">
          <mxGeometry x="-0.4027" y="6" relative="1" as="geometry">
            <Array as="points">
              <mxPoint x="310" y="890" />
              <mxPoint x="643" y="1438" />
            </Array>
            <mxPoint x="970" y="950" as="sourcePoint" />
            <mxPoint as="offset" />
          </mxGeometry>
        </mxCell>
        <mxCell id="IHToHC2NqSq3kmPiKQjZ-129" value="" style="endArrow=classic;html=1;rounded=0;exitX=0.5;exitY=1;exitDx=0;exitDy=0;" edge="1" parent="1" source="IHToHC2NqSq3kmPiKQjZ-80" target="IHToHC2NqSq3kmPiKQjZ-82">
          <mxGeometry width="50" height="50" relative="1" as="geometry">
            <mxPoint x="830" y="440" as="sourcePoint" />
            <mxPoint x="880" y="390" as="targetPoint" />
          </mxGeometry>
        </mxCell>
        <mxCell id="IHToHC2NqSq3kmPiKQjZ-133" value="" style="endArrow=classic;html=1;rounded=0;exitX=0;exitY=0.5;exitDx=0;exitDy=0;entryX=1;entryY=0.5;entryDx=0;entryDy=0;" edge="1" parent="1" source="IHToHC2NqSq3kmPiKQjZ-81" target="IHToHC2NqSq3kmPiKQjZ-80">
          <mxGeometry width="50" height="50" relative="1" as="geometry">
            <mxPoint x="830" y="440" as="sourcePoint" />
            <mxPoint x="600" y="50" as="targetPoint" />
          </mxGeometry>
        </mxCell>
        <mxCell id="IHToHC2NqSq3kmPiKQjZ-135" value="" style="endArrow=classic;html=1;rounded=0;exitX=0.5;exitY=1;exitDx=0;exitDy=0;curved=1;" edge="1" parent="1" source="IHToHC2NqSq3kmPiKQjZ-84" target="IHToHC2NqSq3kmPiKQjZ-87">
          <mxGeometry width="50" height="50" relative="1" as="geometry">
            <mxPoint x="1060" y="1090" as="sourcePoint" />
            <mxPoint x="1110" y="1040" as="targetPoint" />
            <Array as="points">
              <mxPoint x="890" y="780" />
            </Array>
          </mxGeometry>
        </mxCell>
        <mxCell id="IHToHC2NqSq3kmPiKQjZ-136" value="" style="curved=1;startArrow=none;endArrow=block;entryX=0.5;entryY=0;rounded=0;" edge="1" parent="1" source="IHToHC2NqSq3kmPiKQjZ-87" target="IHToHC2NqSq3kmPiKQjZ-90">
          <mxGeometry relative="1" as="geometry">
            <Array as="points">
              <mxPoint x="860" y="980" />
            </Array>
            <mxPoint x="970" y="960" as="sourcePoint" />
            <mxPoint x="1450" y="790" as="targetPoint" />
          </mxGeometry>
        </mxCell>
        <mxCell id="IHToHC2NqSq3kmPiKQjZ-90" value="Doc Stores: MongoDB" style="whiteSpace=wrap;strokeWidth=2;" vertex="1" parent="1">
          <mxGeometry x="735" y="1027" width="210" height="62" as="geometry" />
        </mxCell>
        <mxCell id="IHToHC2NqSq3kmPiKQjZ-140" value="" style="endArrow=classic;html=1;rounded=0;exitX=0.5;exitY=1;exitDx=0;exitDy=0;entryX=0.5;entryY=0;entryDx=0;entryDy=0;curved=1;" edge="1" parent="1" source="IHToHC2NqSq3kmPiKQjZ-84" target="IHToHC2NqSq3kmPiKQjZ-99">
          <mxGeometry width="50" height="50" relative="1" as="geometry">
            <mxPoint x="810" y="1180" as="sourcePoint" />
            <mxPoint x="860" y="1130" as="targetPoint" />
            <Array as="points">
              <mxPoint x="365" y="730" />
              <mxPoint x="340" y="1130" />
            </Array>
          </mxGeometry>
        </mxCell>
        <mxCell id="IHToHC2NqSq3kmPiKQjZ-141" value="" style="endArrow=classic;html=1;rounded=0;exitX=0.5;exitY=1;exitDx=0;exitDy=0;entryX=0.5;entryY=0;entryDx=0;entryDy=0;" edge="1" parent="1" source="IHToHC2NqSq3kmPiKQjZ-84" target="IHToHC2NqSq3kmPiKQjZ-86">
          <mxGeometry width="50" height="50" relative="1" as="geometry">
            <mxPoint x="810" y="1180" as="sourcePoint" />
            <mxPoint x="860" y="1130" as="targetPoint" />
          </mxGeometry>
        </mxCell>
        <mxCell id="IHToHC2NqSq3kmPiKQjZ-142" value="" style="endArrow=classic;html=1;rounded=0;exitX=0.5;exitY=1;exitDx=0;exitDy=0;entryX=0.5;entryY=0;entryDx=0;entryDy=0;curved=1;" edge="1" parent="1" source="IHToHC2NqSq3kmPiKQjZ-84" target="IHToHC2NqSq3kmPiKQjZ-85">
          <mxGeometry width="50" height="50" relative="1" as="geometry">
            <mxPoint x="810" y="1180" as="sourcePoint" />
            <mxPoint x="860" y="1130" as="targetPoint" />
            <Array as="points">
              <mxPoint x="620" y="790" />
            </Array>
          </mxGeometry>
        </mxCell>
        <mxCell id="IHToHC2NqSq3kmPiKQjZ-89" value="Web Searches: Tavily, Google" style="whiteSpace=wrap;strokeWidth=2;" vertex="1" parent="1">
          <mxGeometry x="478" y="1027" width="230" height="62" as="geometry" />
        </mxCell>
        <mxCell id="IHToHC2NqSq3kmPiKQjZ-145" value="" style="endArrow=classic;html=1;rounded=0;exitX=1;exitY=0.5;exitDx=0;exitDy=0;entryX=0;entryY=0.5;entryDx=0;entryDy=0;" edge="1" parent="1" source="IHToHC2NqSq3kmPiKQjZ-91" target="IHToHC2NqSq3kmPiKQjZ-88">
          <mxGeometry width="50" height="50" relative="1" as="geometry">
            <mxPoint x="1100" y="1250" as="sourcePoint" />
            <mxPoint x="1150" y="1200" as="targetPoint" />
          </mxGeometry>
        </mxCell>
        <mxCell id="IHToHC2NqSq3kmPiKQjZ-146" value="" style="endArrow=classic;html=1;rounded=0;exitX=0.5;exitY=1;exitDx=0;exitDy=0;entryX=0.5;entryY=0;entryDx=0;entryDy=0;curved=1;" edge="1" parent="1" source="IHToHC2NqSq3kmPiKQjZ-87" target="IHToHC2NqSq3kmPiKQjZ-91">
          <mxGeometry width="50" height="50" relative="1" as="geometry">
            <mxPoint x="968" y="954" as="sourcePoint" />
            <mxPoint x="1260" y="1130" as="targetPoint" />
            <Array as="points">
              <mxPoint x="1060" y="980" />
            </Array>
          </mxGeometry>
        </mxCell>
        <mxCell id="IHToHC2NqSq3kmPiKQjZ-91" value="Hugging Face Models" style="whiteSpace=wrap;strokeWidth=2;" vertex="1" parent="1">
          <mxGeometry x="970" y="1027" width="208" height="62" as="geometry" />
        </mxCell>
        <mxCell id="IHToHC2NqSq3kmPiKQjZ-147" value="" style="endArrow=classic;html=1;rounded=0;exitX=1;exitY=0.5;exitDx=0;exitDy=0;entryX=0.5;entryY=0;entryDx=0;entryDy=0;curved=1;" edge="1" parent="1" source="IHToHC2NqSq3kmPiKQjZ-87" target="IHToHC2NqSq3kmPiKQjZ-88">
          <mxGeometry width="50" height="50" relative="1" as="geometry">
            <mxPoint x="1100" y="1250" as="sourcePoint" />
            <mxPoint x="1150" y="1200" as="targetPoint" />
            <Array as="points">
              <mxPoint x="1290" y="910" />
            </Array>
          </mxGeometry>
        </mxCell>
        <mxCell id="IHToHC2NqSq3kmPiKQjZ-148" value="" style="endArrow=classic;html=1;rounded=0;exitX=0;exitY=0.5;exitDx=0;exitDy=0;entryX=0.45;entryY=0.055;entryDx=0;entryDy=0;entryPerimeter=0;curved=1;" edge="1" parent="1" source="IHToHC2NqSq3kmPiKQjZ-87" target="IHToHC2NqSq3kmPiKQjZ-89">
          <mxGeometry width="50" height="50" relative="1" as="geometry">
            <mxPoint x="1100" y="1250" as="sourcePoint" />
            <mxPoint x="1150" y="1200" as="targetPoint" />
            <Array as="points">
              <mxPoint x="830" y="1000" />
            </Array>
          </mxGeometry>
        </mxCell>
      </root>
    </mxGraphModel>
  </diagram>
</mxfile>
